<mxfile host="app.diagrams.net" modified="2024-01-24T22:24:54.232Z" agent="Mozilla/5.0 (X11; Ubuntu; Linux x86_64; rv:121.0) Gecko/20100101 Firefox/121.0" etag="7VSGT3_JH29HxPEFCo6G" version="22.1.21" type="github">
  <diagram name="Page-1" id="TAyBCVvqKRcC0uDVDsSn">
    <mxGraphModel dx="8232" dy="822" grid="1" gridSize="10" guides="1" tooltips="1" connect="1" arrows="1" fold="1" page="1" pageScale="1" pageWidth="6000" pageHeight="6000" math="0" shadow="0">
      <root>
        <mxCell id="0" />
        <mxCell id="1" parent="0" />
        <mxCell id="Zmkd0Ww-09jeVbLTOnRM-6" style="edgeStyle=orthogonalEdgeStyle;rounded=0;orthogonalLoop=1;jettySize=auto;html=1;" edge="1" parent="1" source="Zmkd0Ww-09jeVbLTOnRM-1" target="Zmkd0Ww-09jeVbLTOnRM-5">
          <mxGeometry relative="1" as="geometry" />
        </mxCell>
        <mxCell id="Zmkd0Ww-09jeVbLTOnRM-1" value="&lt;h2&gt;&lt;font style=&quot;font-size: 18px;&quot;&gt;main_extract_news&lt;/font&gt;&lt;/h2&gt;" style="rounded=0;whiteSpace=wrap;html=1;" vertex="1" parent="1">
          <mxGeometry x="980" y="520" width="300" height="170" as="geometry" />
        </mxCell>
        <mxCell id="Zmkd0Ww-09jeVbLTOnRM-4" style="edgeStyle=orthogonalEdgeStyle;rounded=0;orthogonalLoop=1;jettySize=auto;html=1;entryX=0;entryY=0.5;entryDx=0;entryDy=0;" edge="1" parent="1" source="Zmkd0Ww-09jeVbLTOnRM-3" target="Zmkd0Ww-09jeVbLTOnRM-1">
          <mxGeometry relative="1" as="geometry" />
        </mxCell>
        <mxCell id="Zmkd0Ww-09jeVbLTOnRM-3" value="&lt;div&gt;&lt;font size=&quot;3&quot;&gt;- Lista de deportes.&lt;br&gt;&lt;/font&gt;&lt;/div&gt;&lt;div&gt;&lt;font size=&quot;3&quot;&gt;- MAX_OLDER_DATE_ALLOWED = 30&lt;/font&gt;&lt;/div&gt;" style="shape=parallelogram;perimeter=parallelogramPerimeter;whiteSpace=wrap;html=1;fixedSize=1;" vertex="1" parent="1">
          <mxGeometry x="-90" y="546" width="400" height="120" as="geometry" />
        </mxCell>
        <mxCell id="Zmkd0Ww-09jeVbLTOnRM-26" style="edgeStyle=orthogonalEdgeStyle;rounded=0;orthogonalLoop=1;jettySize=auto;html=1;entryX=0;entryY=0.5;entryDx=0;entryDy=0;" edge="1" parent="1" source="Zmkd0Ww-09jeVbLTOnRM-5" target="Zmkd0Ww-09jeVbLTOnRM-25">
          <mxGeometry relative="1" as="geometry" />
        </mxCell>
        <mxCell id="Zmkd0Ww-09jeVbLTOnRM-5" value="&lt;font style=&quot;font-size: 18px;&quot;&gt;-- Guarda los nuevos resultados en la base de datos.&lt;/font&gt;" style="whiteSpace=wrap;html=1;aspect=fixed;" vertex="1" parent="1">
          <mxGeometry x="1500" y="470" width="270" height="270" as="geometry" />
        </mxCell>
        <mxCell id="Zmkd0Ww-09jeVbLTOnRM-7" style="edgeStyle=orthogonalEdgeStyle;rounded=0;orthogonalLoop=1;jettySize=auto;html=1;" edge="1" parent="1" source="Zmkd0Ww-09jeVbLTOnRM-8" target="Zmkd0Ww-09jeVbLTOnRM-12">
          <mxGeometry relative="1" as="geometry">
            <mxPoint x="1550" y="910" as="targetPoint" />
          </mxGeometry>
        </mxCell>
        <mxCell id="Zmkd0Ww-09jeVbLTOnRM-8" value="&lt;h2&gt;&lt;font style=&quot;font-size: 18px;&quot;&gt;leagues_creation&lt;/font&gt;&lt;/h2&gt;" style="rounded=0;whiteSpace=wrap;html=1;" vertex="1" parent="1">
          <mxGeometry x="1000" y="810" width="300" height="170" as="geometry" />
        </mxCell>
        <mxCell id="Zmkd0Ww-09jeVbLTOnRM-9" style="edgeStyle=orthogonalEdgeStyle;rounded=0;orthogonalLoop=1;jettySize=auto;html=1;entryX=0;entryY=0.5;entryDx=0;entryDy=0;" edge="1" parent="1" source="Zmkd0Ww-09jeVbLTOnRM-10" target="Zmkd0Ww-09jeVbLTOnRM-8">
          <mxGeometry relative="1" as="geometry" />
        </mxCell>
        <mxCell id="Zmkd0Ww-09jeVbLTOnRM-10" value="&lt;div&gt;&lt;font style=&quot;font-size: 18px;&quot;&gt;- Lista de deportes.&lt;br&gt;&lt;/font&gt;&lt;/div&gt;" style="shape=parallelogram;perimeter=parallelogramPerimeter;whiteSpace=wrap;html=1;fixedSize=1;" vertex="1" parent="1">
          <mxGeometry x="-70" y="835" width="400" height="120" as="geometry" />
        </mxCell>
        <mxCell id="Zmkd0Ww-09jeVbLTOnRM-22" style="edgeStyle=orthogonalEdgeStyle;rounded=0;orthogonalLoop=1;jettySize=auto;html=1;" edge="1" parent="1" source="Zmkd0Ww-09jeVbLTOnRM-12" target="Zmkd0Ww-09jeVbLTOnRM-19">
          <mxGeometry relative="1" as="geometry">
            <Array as="points">
              <mxPoint x="1790" y="1070" />
              <mxPoint x="580" y="1070" />
            </Array>
          </mxGeometry>
        </mxCell>
        <mxCell id="Zmkd0Ww-09jeVbLTOnRM-29" style="edgeStyle=orthogonalEdgeStyle;rounded=0;orthogonalLoop=1;jettySize=auto;html=1;" edge="1" parent="1" source="Zmkd0Ww-09jeVbLTOnRM-12" target="Zmkd0Ww-09jeVbLTOnRM-28">
          <mxGeometry relative="1" as="geometry" />
        </mxCell>
        <mxCell id="Zmkd0Ww-09jeVbLTOnRM-12" value="&lt;div align=&quot;left&quot;&gt;&lt;font style=&quot;font-size: 18px;&quot;&gt;- Obtiene la lsita de ligas que poseen el pin.&lt;/font&gt;&lt;/div&gt;&lt;div align=&quot;left&quot;&gt;&lt;font size=&quot;3&quot;&gt;- Se obtiene la liga, el logo y la temporada.&lt;/font&gt;&lt;/div&gt;&lt;div align=&quot;left&quot;&gt;&lt;font size=&quot;3&quot;&gt;- Veirifica si la liga la fue creadas&lt;/font&gt;&lt;/div&gt;&lt;div align=&quot;left&quot;&gt;&lt;font size=&quot;3&quot;&gt;- Verifica si la temporada para esta liga ya fue creada.&lt;/font&gt;&lt;/div&gt;&lt;div align=&quot;left&quot;&gt;&lt;font size=&quot;3&quot;&gt;- Se genera un archivo json, que contiene el nombre,&lt;/font&gt;&lt;/div&gt;&lt;div align=&quot;left&quot;&gt;&lt;font size=&quot;3&quot;&gt;&amp;nbsp;y links de cada una de las leagues.&lt;br&gt;&lt;/font&gt;&lt;/div&gt;&lt;div align=&quot;left&quot;&gt;&lt;font size=&quot;3&quot;&gt;&lt;br&gt;&lt;/font&gt;&lt;/div&gt;&lt;div align=&quot;left&quot;&gt;&lt;font size=&quot;3&quot;&gt;&lt;br&gt;&lt;/font&gt;&lt;/div&gt;" style="rounded=1;whiteSpace=wrap;html=1;" vertex="1" parent="1">
          <mxGeometry x="1540" y="772.5" width="500" height="245" as="geometry" />
        </mxCell>
        <mxCell id="Zmkd0Ww-09jeVbLTOnRM-33" style="edgeStyle=orthogonalEdgeStyle;rounded=0;orthogonalLoop=1;jettySize=auto;html=1;" edge="1" parent="1" source="Zmkd0Ww-09jeVbLTOnRM-19" target="Zmkd0Ww-09jeVbLTOnRM-31">
          <mxGeometry relative="1" as="geometry" />
        </mxCell>
        <mxCell id="Zmkd0Ww-09jeVbLTOnRM-39" style="edgeStyle=orthogonalEdgeStyle;rounded=0;orthogonalLoop=1;jettySize=auto;html=1;entryX=0;entryY=0.5;entryDx=0;entryDy=0;" edge="1" parent="1" source="Zmkd0Ww-09jeVbLTOnRM-19" target="Zmkd0Ww-09jeVbLTOnRM-38">
          <mxGeometry relative="1" as="geometry">
            <Array as="points">
              <mxPoint x="570" y="1700" />
            </Array>
          </mxGeometry>
        </mxCell>
        <mxCell id="Zmkd0Ww-09jeVbLTOnRM-19" value="&lt;div align=&quot;justify&quot;&gt;&lt;font style=&quot;font-size: 18px;&quot;&gt;En la carpeta check_points/&lt;/font&gt;&lt;/div&gt;&lt;div align=&quot;justify&quot;&gt;&lt;font style=&quot;font-size: 18px;&quot;&gt;leagues_season&lt;/font&gt;&lt;/div&gt;&lt;div align=&quot;justify&quot;&gt;&lt;font style=&quot;font-size: 18px;&quot;&gt;se guarda el archivo:&lt;br&gt;&lt;/font&gt;&lt;/div&gt;&lt;div align=&quot;justify&quot;&gt;&lt;font style=&quot;font-size: 18px;&quot;&gt;- leagues_seson.json&lt;br&gt;&lt;/font&gt;&lt;/div&gt;" style="shape=parallelogram;perimeter=parallelogramPerimeter;whiteSpace=wrap;html=1;fixedSize=1;" vertex="1" parent="1">
          <mxGeometry x="380" y="1222.5" width="400" height="117.5" as="geometry" />
        </mxCell>
        <mxCell id="Zmkd0Ww-09jeVbLTOnRM-32" style="edgeStyle=orthogonalEdgeStyle;rounded=0;orthogonalLoop=1;jettySize=auto;html=1;" edge="1" parent="1" source="Zmkd0Ww-09jeVbLTOnRM-23" target="Zmkd0Ww-09jeVbLTOnRM-31">
          <mxGeometry relative="1" as="geometry">
            <Array as="points">
              <mxPoint x="3180" y="1120" />
              <mxPoint x="1200" y="1120" />
            </Array>
          </mxGeometry>
        </mxCell>
        <mxCell id="Zmkd0Ww-09jeVbLTOnRM-23" value="&lt;b&gt;&lt;font style=&quot;font-size: 36px;&quot;&gt;Data base&lt;/font&gt;&lt;/b&gt;" style="shape=dataStorage;whiteSpace=wrap;html=1;fixedSize=1;" vertex="1" parent="1">
          <mxGeometry x="2990" y="900" width="380" height="180" as="geometry" />
        </mxCell>
        <mxCell id="Zmkd0Ww-09jeVbLTOnRM-27" style="edgeStyle=orthogonalEdgeStyle;rounded=0;orthogonalLoop=1;jettySize=auto;html=1;" edge="1" parent="1" source="Zmkd0Ww-09jeVbLTOnRM-25" target="Zmkd0Ww-09jeVbLTOnRM-23">
          <mxGeometry relative="1" as="geometry">
            <mxPoint x="2480" y="606" as="targetPoint" />
          </mxGeometry>
        </mxCell>
        <mxCell id="Zmkd0Ww-09jeVbLTOnRM-25" value="&lt;font style=&quot;font-size: 18px;&quot;&gt;- Creacion de la tabla news.&lt;/font&gt;" style="rounded=0;whiteSpace=wrap;html=1;" vertex="1" parent="1">
          <mxGeometry x="2090" y="501" width="350" height="210" as="geometry" />
        </mxCell>
        <mxCell id="Zmkd0Ww-09jeVbLTOnRM-30" style="edgeStyle=orthogonalEdgeStyle;rounded=0;orthogonalLoop=1;jettySize=auto;html=1;" edge="1" parent="1" source="Zmkd0Ww-09jeVbLTOnRM-28" target="Zmkd0Ww-09jeVbLTOnRM-23">
          <mxGeometry relative="1" as="geometry" />
        </mxCell>
        <mxCell id="Zmkd0Ww-09jeVbLTOnRM-28" value="&lt;div align=&quot;left&quot;&gt;&lt;font style=&quot;font-size: 18px;&quot;&gt;- CreaciÃ³n de la tabla:&lt;/font&gt;&lt;/div&gt;&lt;div align=&quot;left&quot;&gt;&lt;font style=&quot;font-size: 18px;&quot;&gt;&lt;br&gt;&lt;/font&gt;&lt;/div&gt;&lt;div align=&quot;left&quot;&gt;&lt;font style=&quot;font-size: 18px;&quot;&gt;- Teams&lt;/font&gt;&lt;/div&gt;&lt;div align=&quot;left&quot;&gt;&lt;font style=&quot;font-size: 18px;&quot;&gt;- Season&lt;/font&gt;&lt;/div&gt;&lt;div align=&quot;left&quot;&gt;&lt;font style=&quot;font-size: 18px;&quot;&gt;- league_team&lt;/font&gt;&lt;/div&gt;&lt;div align=&quot;left&quot;&gt;&lt;font style=&quot;font-size: 18px;&quot;&gt;- team_players_entity&lt;br&gt;&lt;/font&gt;&lt;/div&gt;&lt;div align=&quot;left&quot;&gt;&lt;font style=&quot;font-size: 18px;&quot;&gt;&lt;br&gt;&lt;/font&gt;&lt;/div&gt;" style="rounded=0;whiteSpace=wrap;html=1;" vertex="1" parent="1">
          <mxGeometry x="2200" y="790" width="350" height="210" as="geometry" />
        </mxCell>
        <mxCell id="Zmkd0Ww-09jeVbLTOnRM-35" style="edgeStyle=orthogonalEdgeStyle;rounded=0;orthogonalLoop=1;jettySize=auto;html=1;" edge="1" parent="1" source="Zmkd0Ww-09jeVbLTOnRM-31" target="Zmkd0Ww-09jeVbLTOnRM-34">
          <mxGeometry relative="1" as="geometry" />
        </mxCell>
        <mxCell id="Zmkd0Ww-09jeVbLTOnRM-31" value="&lt;h2&gt;&lt;font style=&quot;font-size: 18px;&quot;&gt;Fixture&lt;/font&gt;&lt;/h2&gt;&lt;h2&gt;&lt;font size=&quot;3&quot;&gt;Results&lt;/font&gt;&lt;/h2&gt;" style="rounded=0;whiteSpace=wrap;html=1;" vertex="1" parent="1">
          <mxGeometry x="1050" y="1197.5" width="300" height="170" as="geometry" />
        </mxCell>
        <mxCell id="Zmkd0Ww-09jeVbLTOnRM-63" style="edgeStyle=orthogonalEdgeStyle;rounded=0;orthogonalLoop=1;jettySize=auto;html=1;" edge="1" parent="1" source="Zmkd0Ww-09jeVbLTOnRM-34" target="Zmkd0Ww-09jeVbLTOnRM-36">
          <mxGeometry relative="1" as="geometry" />
        </mxCell>
        <mxCell id="Zmkd0Ww-09jeVbLTOnRM-34" value="&lt;div align=&quot;left&quot;&gt;&lt;font style=&quot;font-size: 18px;&quot;&gt;-&amp;nbsp; Verifica las rondas que ya estan almacenadas&lt;/font&gt;&lt;/div&gt;&lt;div align=&quot;left&quot;&gt;&lt;font style=&quot;font-size: 18px;&quot;&gt;- Solo extrae los partidos que no se han &lt;br&gt;&lt;/font&gt;&lt;/div&gt;&lt;div align=&quot;left&quot;&gt;&lt;font style=&quot;font-size: 18px;&quot;&gt;almacenado en la base de datos.&lt;/font&gt;&lt;/div&gt;&lt;div align=&quot;left&quot;&gt;&lt;font style=&quot;font-size: 18px;&quot;&gt;- Verifica la modalidad del deporte, para tenis&lt;/font&gt;&lt;/div&gt;&lt;div align=&quot;left&quot;&gt;&lt;font style=&quot;font-size: 18px;&quot;&gt;se debe crear el equipo y el jugador cuando se&lt;/font&gt;&lt;/div&gt;&lt;div align=&quot;left&quot;&gt;&lt;font style=&quot;font-size: 18px;&quot;&gt;ingrese a cada partido, verificando duplicados.&lt;br&gt;&lt;/font&gt;&lt;/div&gt;&lt;br&gt;&lt;div align=&quot;left&quot;&gt;&lt;font size=&quot;3&quot;&gt;&lt;br&gt;&lt;/font&gt;&lt;/div&gt;&lt;div align=&quot;left&quot;&gt;&lt;font size=&quot;3&quot;&gt;&lt;br&gt;&lt;/font&gt;&lt;/div&gt;" style="rounded=1;whiteSpace=wrap;html=1;" vertex="1" parent="1">
          <mxGeometry x="1570" y="1160" width="500" height="245" as="geometry" />
        </mxCell>
        <mxCell id="Zmkd0Ww-09jeVbLTOnRM-37" style="edgeStyle=orthogonalEdgeStyle;rounded=0;orthogonalLoop=1;jettySize=auto;html=1;entryX=0.5;entryY=1;entryDx=0;entryDy=0;" edge="1" parent="1" source="Zmkd0Ww-09jeVbLTOnRM-36" target="Zmkd0Ww-09jeVbLTOnRM-23">
          <mxGeometry relative="1" as="geometry" />
        </mxCell>
        <mxCell id="Zmkd0Ww-09jeVbLTOnRM-36" value="&lt;div align=&quot;left&quot;&gt;&lt;font style=&quot;font-size: 18px;&quot;&gt;- CreaciÃ³n de la tabla:&lt;/font&gt;&lt;/div&gt;&lt;div align=&quot;left&quot;&gt;&lt;font style=&quot;font-size: 18px;&quot;&gt;&lt;br&gt;&lt;/font&gt;&lt;/div&gt;&lt;div align=&quot;left&quot;&gt;&lt;font style=&quot;font-size: 18px;&quot;&gt;- match&lt;br&gt;&lt;/font&gt;&lt;/div&gt;&lt;div align=&quot;left&quot;&gt;&lt;font style=&quot;font-size: 18px;&quot;&gt;- match_detail&lt;br&gt;&lt;/font&gt;&lt;/div&gt;&lt;div align=&quot;left&quot;&gt;&lt;font style=&quot;font-size: 18px;&quot;&gt;- score_entity&lt;/font&gt;&lt;/div&gt;&lt;div align=&quot;left&quot;&gt;&lt;font style=&quot;font-size: 18px;&quot;&gt;&lt;br&gt;&lt;/font&gt;&lt;/div&gt;" style="rounded=0;whiteSpace=wrap;html=1;" vertex="1" parent="1">
          <mxGeometry x="2230" y="1170" width="350" height="210" as="geometry" />
        </mxCell>
        <mxCell id="Zmkd0Ww-09jeVbLTOnRM-46" style="edgeStyle=orthogonalEdgeStyle;rounded=0;orthogonalLoop=1;jettySize=auto;html=1;" edge="1" parent="1" source="Zmkd0Ww-09jeVbLTOnRM-38" target="Zmkd0Ww-09jeVbLTOnRM-45">
          <mxGeometry relative="1" as="geometry" />
        </mxCell>
        <mxCell id="Zmkd0Ww-09jeVbLTOnRM-38" value="&lt;font style=&quot;font-size: 18px;&quot;&gt;&lt;b&gt;Players&lt;/b&gt;&lt;/font&gt;" style="rounded=0;whiteSpace=wrap;html=1;" vertex="1" parent="1">
          <mxGeometry x="1080" y="1615" width="300" height="170" as="geometry" />
        </mxCell>
        <mxCell id="Zmkd0Ww-09jeVbLTOnRM-41" style="edgeStyle=orthogonalEdgeStyle;rounded=0;orthogonalLoop=1;jettySize=auto;html=1;" edge="1" parent="1" source="Zmkd0Ww-09jeVbLTOnRM-40">
          <mxGeometry relative="1" as="geometry">
            <mxPoint x="1190" y="1370.0000000000005" as="targetPoint" />
          </mxGeometry>
        </mxCell>
        <mxCell id="Zmkd0Ww-09jeVbLTOnRM-40" value="&lt;div&gt;&lt;font style=&quot;font-size: 18px;&quot;&gt;- Lista de deportes.&lt;br&gt;&lt;/font&gt;&lt;/div&gt;" style="shape=parallelogram;perimeter=parallelogramPerimeter;whiteSpace=wrap;html=1;fixedSize=1;" vertex="1" parent="1">
          <mxGeometry x="-80" y="1390" width="400" height="120" as="geometry" />
        </mxCell>
        <mxCell id="Zmkd0Ww-09jeVbLTOnRM-43" style="edgeStyle=orthogonalEdgeStyle;rounded=0;orthogonalLoop=1;jettySize=auto;html=1;" edge="1" parent="1" source="Zmkd0Ww-09jeVbLTOnRM-42" target="Zmkd0Ww-09jeVbLTOnRM-38">
          <mxGeometry relative="1" as="geometry" />
        </mxCell>
        <mxCell id="Zmkd0Ww-09jeVbLTOnRM-42" value="&lt;div&gt;&lt;font style=&quot;font-size: 18px;&quot;&gt;- Lista de deportes.&lt;br&gt;&lt;/font&gt;&lt;/div&gt;" style="shape=parallelogram;perimeter=parallelogramPerimeter;whiteSpace=wrap;html=1;fixedSize=1;" vertex="1" parent="1">
          <mxGeometry x="-70" y="1640" width="400" height="120" as="geometry" />
        </mxCell>
        <mxCell id="Zmkd0Ww-09jeVbLTOnRM-47" style="edgeStyle=orthogonalEdgeStyle;rounded=0;orthogonalLoop=1;jettySize=auto;html=1;" edge="1" parent="1" source="Zmkd0Ww-09jeVbLTOnRM-45">
          <mxGeometry relative="1" as="geometry">
            <mxPoint x="3180" y="1090" as="targetPoint" />
          </mxGeometry>
        </mxCell>
        <mxCell id="Zmkd0Ww-09jeVbLTOnRM-45" value="&lt;div align=&quot;left&quot;&gt;&lt;font style=&quot;font-size: 18px;&quot;&gt;- CreaciÃ³n de la tabla:&lt;/font&gt;&lt;/div&gt;&lt;div align=&quot;left&quot;&gt;&lt;font style=&quot;font-size: 18px;&quot;&gt;&lt;br&gt;&lt;/font&gt;&lt;/div&gt;&lt;div align=&quot;left&quot;&gt;&lt;font style=&quot;font-size: 18px;&quot;&gt;- player&lt;br&gt;&lt;/font&gt;&lt;/div&gt;&lt;div align=&quot;left&quot;&gt;&lt;font style=&quot;font-size: 18px;&quot;&gt;- team_players_entity&lt;br&gt;&lt;/font&gt;&lt;/div&gt;&lt;br&gt;&lt;div align=&quot;left&quot;&gt;&lt;font style=&quot;font-size: 18px;&quot;&gt;&lt;br&gt;&lt;/font&gt;&lt;/div&gt;" style="rounded=0;whiteSpace=wrap;html=1;" vertex="1" parent="1">
          <mxGeometry x="2260" y="1595" width="350" height="210" as="geometry" />
        </mxCell>
        <mxCell id="Zmkd0Ww-09jeVbLTOnRM-50" style="edgeStyle=orthogonalEdgeStyle;rounded=0;orthogonalLoop=1;jettySize=auto;html=1;" edge="1" parent="1" source="Zmkd0Ww-09jeVbLTOnRM-48" target="Zmkd0Ww-09jeVbLTOnRM-49">
          <mxGeometry relative="1" as="geometry" />
        </mxCell>
        <mxCell id="Zmkd0Ww-09jeVbLTOnRM-48" value="&lt;b&gt;&lt;font style=&quot;font-size: 36px;&quot;&gt;Execution_control.json&lt;/font&gt;&lt;/b&gt;" style="shape=parallelogram;perimeter=parallelogramPerimeter;whiteSpace=wrap;html=1;fixedSize=1;" vertex="1" parent="1">
          <mxGeometry x="-2700" y="953.75" width="540" height="150" as="geometry" />
        </mxCell>
        <mxCell id="Zmkd0Ww-09jeVbLTOnRM-52" style="edgeStyle=orthogonalEdgeStyle;rounded=0;orthogonalLoop=1;jettySize=auto;html=1;" edge="1" parent="1" source="Zmkd0Ww-09jeVbLTOnRM-49" target="Zmkd0Ww-09jeVbLTOnRM-51">
          <mxGeometry relative="1" as="geometry" />
        </mxCell>
        <mxCell id="Zmkd0Ww-09jeVbLTOnRM-49" value="&lt;b&gt;&lt;font style=&quot;font-size: 64px;&quot;&gt;Main.py&lt;/font&gt;&lt;/b&gt;" style="rounded=1;whiteSpace=wrap;html=1;" vertex="1" parent="1">
          <mxGeometry x="-1780" y="910" width="640" height="237.5" as="geometry" />
        </mxCell>
        <mxCell id="Zmkd0Ww-09jeVbLTOnRM-53" style="edgeStyle=orthogonalEdgeStyle;rounded=0;orthogonalLoop=1;jettySize=auto;html=1;entryX=0;entryY=0.25;entryDx=0;entryDy=0;" edge="1" parent="1" source="Zmkd0Ww-09jeVbLTOnRM-51" target="Zmkd0Ww-09jeVbLTOnRM-3">
          <mxGeometry relative="1" as="geometry">
            <Array as="points">
              <mxPoint x="-280" y="1029" />
              <mxPoint x="-280" y="578" />
            </Array>
          </mxGeometry>
        </mxCell>
        <mxCell id="Zmkd0Ww-09jeVbLTOnRM-54" style="edgeStyle=orthogonalEdgeStyle;rounded=0;orthogonalLoop=1;jettySize=auto;html=1;" edge="1" parent="1" source="Zmkd0Ww-09jeVbLTOnRM-51" target="Zmkd0Ww-09jeVbLTOnRM-40">
          <mxGeometry relative="1" as="geometry">
            <Array as="points">
              <mxPoint x="-280" y="1029" />
              <mxPoint x="-280" y="1450" />
            </Array>
          </mxGeometry>
        </mxCell>
        <mxCell id="Zmkd0Ww-09jeVbLTOnRM-56" style="edgeStyle=orthogonalEdgeStyle;rounded=0;orthogonalLoop=1;jettySize=auto;html=1;entryX=0;entryY=0.5;entryDx=0;entryDy=0;" edge="1" parent="1" source="Zmkd0Ww-09jeVbLTOnRM-51" target="Zmkd0Ww-09jeVbLTOnRM-42">
          <mxGeometry relative="1" as="geometry">
            <Array as="points">
              <mxPoint x="-690" y="1700" />
            </Array>
          </mxGeometry>
        </mxCell>
        <mxCell id="Zmkd0Ww-09jeVbLTOnRM-61" style="edgeStyle=orthogonalEdgeStyle;rounded=0;orthogonalLoop=1;jettySize=auto;html=1;entryX=0;entryY=0.5;entryDx=0;entryDy=0;" edge="1" parent="1" source="Zmkd0Ww-09jeVbLTOnRM-51" target="Zmkd0Ww-09jeVbLTOnRM-57">
          <mxGeometry relative="1" as="geometry">
            <Array as="points">
              <mxPoint x="-690" y="2055" />
            </Array>
          </mxGeometry>
        </mxCell>
        <mxCell id="Zmkd0Ww-09jeVbLTOnRM-62" style="edgeStyle=orthogonalEdgeStyle;rounded=0;orthogonalLoop=1;jettySize=auto;html=1;" edge="1" parent="1" source="Zmkd0Ww-09jeVbLTOnRM-51" target="Zmkd0Ww-09jeVbLTOnRM-10">
          <mxGeometry relative="1" as="geometry" />
        </mxCell>
        <mxCell id="Zmkd0Ww-09jeVbLTOnRM-51" value="&lt;font style=&quot;font-size: 36px;&quot;&gt;Control de las funciones que se estaran ejecutando&lt;/font&gt;" style="rounded=1;whiteSpace=wrap;html=1;" vertex="1" parent="1">
          <mxGeometry x="-840" y="878.75" width="350" height="301.25" as="geometry" />
        </mxCell>
        <mxCell id="Zmkd0Ww-09jeVbLTOnRM-59" style="edgeStyle=orthogonalEdgeStyle;rounded=0;orthogonalLoop=1;jettySize=auto;html=1;" edge="1" parent="1" source="Zmkd0Ww-09jeVbLTOnRM-57" target="Zmkd0Ww-09jeVbLTOnRM-58">
          <mxGeometry relative="1" as="geometry" />
        </mxCell>
        <mxCell id="Zmkd0Ww-09jeVbLTOnRM-57" value="&lt;div&gt;&lt;font style=&quot;font-size: 18px;&quot;&gt;- Lista de deportes.&lt;br&gt;&lt;/font&gt;&lt;/div&gt;" style="shape=parallelogram;perimeter=parallelogramPerimeter;whiteSpace=wrap;html=1;fixedSize=1;" vertex="1" parent="1">
          <mxGeometry x="-70" y="1995" width="400" height="120" as="geometry" />
        </mxCell>
        <mxCell id="Zmkd0Ww-09jeVbLTOnRM-60" style="edgeStyle=orthogonalEdgeStyle;rounded=0;orthogonalLoop=1;jettySize=auto;html=1;entryX=0.5;entryY=1;entryDx=0;entryDy=0;" edge="1" parent="1" source="Zmkd0Ww-09jeVbLTOnRM-58" target="Zmkd0Ww-09jeVbLTOnRM-23">
          <mxGeometry relative="1" as="geometry">
            <mxPoint x="2460" y="2100" as="targetPoint" />
          </mxGeometry>
        </mxCell>
        <mxCell id="Zmkd0Ww-09jeVbLTOnRM-58" value="&lt;b&gt;&lt;font style=&quot;font-size: 24px;&quot;&gt;Live&lt;/font&gt;&lt;/b&gt;" style="rounded=0;whiteSpace=wrap;html=1;" vertex="1" parent="1">
          <mxGeometry x="1070" y="1970" width="300" height="170" as="geometry" />
        </mxCell>
      </root>
    </mxGraphModel>
  </diagram>
</mxfile>
